<svg xmlns="http://www.w3.org/2000/svg" width="320" height="255" viewBox="0 0 320 255"><rect width="320" height="255" fill="#ffffff"/><rect x="15" y="15" width="290" height="225" rx="6" fill="#ffffff" stroke="#475569" stroke-width="4"/><circle cx="40" cy="218" r="17" fill="#1cb0f6" stroke="#0b6fa4" stroke-width="3"/><circle cx="76" cy="218" r="17" fill="#1cb0f6" stroke="#0b6fa4" stroke-width="3"/><circle cx="118" cy="218" r="17" fill="#1cb0f6" stroke="#0b6fa4" stroke-width="3"/><circle cx="154" cy="218" r="17" fill="#1cb0f6" stroke="#0b6fa4" stroke-width="3"/><circle cx="196" cy="218" r="17" fill="#1cb0f6" stroke="#0b6fa4" stroke-width="3"/><circle cx="232" cy="218" r="17" fill="#1cb0f6" stroke="#0b6fa4" stroke-width="3"/><circle cx="272" cy="218" r="17" fill="#1cb0f6" stroke="#0b6fa4" stroke-width="3"/><circle cx="58" cy="188" r="17" fill="#1cb0f6" stroke="#0b6fa4" stroke-width="3"/><circle cx="98" cy="190" r="17" fill="#1cb0f6" stroke="#0b6fa4" stroke-width="3"/><circle cx="136" cy="189" r="17" fill="#1cb0f6" stroke="#0b6fa4" stroke-width="3"/><circle cx="176" cy="190" r="17" fill="#1cb0f6" stroke="#0b6fa4" stroke-width="3"/><circle cx="214" cy="189" r="17" fill="#1cb0f6" stroke="#0b6fa4" stroke-width="3"/><circle cx="251" cy="190" r="17" fill="#1cb0f6" stroke="#0b6fa4" stroke-width="3"/><circle cx="80" cy="160" r="17" fill="#1cb0f6" stroke="#0b6fa4" stroke-width="3"/><circle cx="150" cy="158" r="17" fill="#1cb0f6" stroke="#0b6fa4" stroke-width="3"/><circle cx="196" cy="160" r="17" fill="#1cb0f6" stroke="#0b6fa4" stroke-width="3"/><circle cx="233" cy="158" r="17" fill="#1cb0f6" stroke="#0b6fa4" stroke-width="3"/></svg>
