<svg xmlns="http://www.w3.org/2000/svg" width="320" height="255" viewBox="0 0 320 255"><rect width="320" height="255" fill="#ffffff"/><rect x="15" y="15" width="290" height="225" rx="6" fill="#ffffff" stroke="#475569" stroke-width="4"/><circle cx="52" cy="218" r="17" fill="#1cb0f6" stroke="#0b6fa4" stroke-width="3"/><circle cx="88" cy="218" r="17" fill="#1cb0f6" stroke="#0b6fa4" stroke-width="3"/><circle cx="124" cy="218" r="17" fill="#1cb0f6" stroke="#0b6fa4" stroke-width="3"/><circle cx="160" cy="218" r="17" fill="#1cb0f6" stroke="#0b6fa4" stroke-width="3"/><circle cx="196" cy="218" r="17" fill="#1cb0f6" stroke="#0b6fa4" stroke-width="3"/><circle cx="232" cy="218" r="17" fill="#1cb0f6" stroke="#0b6fa4" stroke-width="3"/><circle cx="268" cy="218" r="17" fill="#1cb0f6" stroke="#0b6fa4" stroke-width="3"/><circle cx="52" cy="182" r="17" fill="#1cb0f6" stroke="#0b6fa4" stroke-width="3"/><circle cx="88" cy="182" r="17" fill="#1cb0f6" stroke="#0b6fa4" stroke-width="3"/><circle cx="124" cy="182" r="17" fill="#1cb0f6" stroke="#0b6fa4" stroke-width="3"/><circle cx="160" cy="182" r="17" fill="#1cb0f6" stroke="#0b6fa4" stroke-width="3"/><circle cx="196" cy="182" r="17" fill="#1cb0f6" stroke="#0b6fa4" stroke-width="3"/><circle cx="232" cy="182" r="17" fill="#1cb0f6" stroke="#0b6fa4" stroke-width="3"/><circle cx="268" cy="182" r="17" fill="#1cb0f6" stroke="#0b6fa4" stroke-width="3"/><circle cx="52" cy="146" r="17" fill="#1cb0f6" stroke="#0b6fa4" stroke-width="3"/><circle cx="88" cy="146" r="17" fill="#1cb0f6" stroke="#0b6fa4" stroke-width="3"/><circle cx="124" cy="146" r="17" fill="#1cb0f6" stroke="#0b6fa4" stroke-width="3"/><circle cx="160" cy="146" r="17" fill="#1cb0f6" stroke="#0b6fa4" stroke-width="3"/><circle cx="196" cy="146" r="17" fill="#1cb0f6" stroke="#0b6fa4" stroke-width="3"/><circle cx="232" cy="146" r="17" fill="#1cb0f6" stroke="#0b6fa4" stroke-width="3"/><circle cx="268" cy="146" r="17" fill="#1cb0f6" stroke="#0b6fa4" stroke-width="3"/><circle cx="52" cy="110" r="17" fill="#1cb0f6" stroke="#0b6fa4" stroke-width="3"/><circle cx="88" cy="110" r="17" fill="#1cb0f6" stroke="#0b6fa4" stroke-width="3"/><circle cx="124" cy="110" r="17" fill="#1cb0f6" stroke="#0b6fa4" stroke-width="3"/><circle cx="160" cy="110" r="17" fill="#1cb0f6" stroke="#0b6fa4" stroke-width="3"/><circle cx="196" cy="110" r="17" fill="#1cb0f6" stroke="#0b6fa4" stroke-width="3"/><circle cx="232" cy="110" r="17" fill="#1cb0f6" stroke="#0b6fa4" stroke-width="3"/><circle cx="268" cy="110" r="17" fill="#1cb0f6" stroke="#0b6fa4" stroke-width="3"/><circle cx="52" cy="74" r="17" fill="#1cb0f6" stroke="#0b6fa4" stroke-width="3"/><circle cx="88" cy="74" r="17" fill="#1cb0f6" stroke="#0b6fa4" stroke-width="3"/><circle cx="124" cy="74" r="17" fill="#1cb0f6" stroke="#0b6fa4" stroke-width="3"/><circle cx="160" cy="74" r="17" fill="#1cb0f6" stroke="#0b6fa4" stroke-width="3"/><circle cx="196" cy="74" r="17" fill="#1cb0f6" stroke="#0b6fa4" stroke-width="3"/><circle cx="232" cy="74" r="17" fill="#1cb0f6" stroke="#0b6fa4" stroke-width="3"/><circle cx="268" cy="74" r="17" fill="#1cb0f6" stroke="#0b6fa4" stroke-width="3"/></svg>
